<svg width="36" height="34" viewBox="0 0 36 34" fill="none" xmlns="http://www.w3.org/2000/svg">
<path d="M1 3.25V0.75" stroke="#B3B3B3" stroke-width="1.5" stroke-linecap="round"/>
<path d="M17 3.25V0.75" stroke="#B3B3B3" stroke-width="1.5" stroke-linecap="round"/>
<path d="M21 33.25H14.3333C8.04794 33.25 4.90524 33.25 2.95262 31.2974C1 29.3448 1 26.2021 1 19.9167V16.5833C1 10.2979 1 7.15524 2.95262 5.20262C4.90524 3.25 8.04794 3.25 14.3333 3.25H21C27.2854 3.25 30.4281 3.25 32.3807 5.20262C34.3333 7.15524 34.3333 10.2979 34.3333 16.5833V19.9167C34.3333 26.2021 34.3333 29.3448 32.3807 31.2974C31.2921 32.386 29.8335 32.8677 27.6667 33.0808" stroke="#B3B3B3" stroke-width="1.5" stroke-linecap="round"/>
<path d="M33.667 10.2661H25.542H15.7503M1.16699 10.2661H7.62533" stroke="#B3B3B3" stroke-width="1.5" stroke-linecap="round"/>
<path d="M27.8333 21.9775C27.8333 22.7861 27.0871 23.4415 26.1667 23.4415C25.2462 23.4415 24.5 22.7861 24.5 21.9775C24.5 21.169 25.2462 20.5136 26.1667 20.5136C27.0871 20.5136 27.8333 21.169 27.8333 21.9775Z" fill="#B3B3B3"/>
<path d="M27.8333 16.1217C27.8333 16.9302 27.0871 17.5856 26.1667 17.5856C25.2462 17.5856 24.5 16.9302 24.5 16.1217C24.5 15.3132 25.2462 14.6577 26.1667 14.6577C27.0871 14.6577 27.8333 15.3132 27.8333 16.1217Z" fill="#B3B3B3"/>
<path d="M19.5003 21.9775C19.5003 22.7861 18.7541 23.4415 17.8337 23.4415C16.9132 23.4415 16.167 22.7861 16.167 21.9775C16.167 21.169 16.9132 20.5136 17.8337 20.5136C18.7541 20.5136 19.5003 21.169 19.5003 21.9775Z" fill="#B3B3B3"/>
<path d="M19.5003 16.1217C19.5003 16.9302 18.7541 17.5856 17.8337 17.5856C16.9132 17.5856 16.167 16.9302 16.167 16.1217C16.167 15.3132 16.9132 14.6577 17.8337 14.6577C18.7541 14.6577 19.5003 15.3132 19.5003 16.1217Z" fill="#B3B3B3"/>
<path d="M11.1668 21.9775C11.1668 22.7861 10.4206 23.4415 9.50016 23.4415C8.57969 23.4415 7.8335 22.7861 7.8335 21.9775C7.8335 21.169 8.57969 20.5136 9.50016 20.5136C10.4206 20.5136 11.1668 21.169 11.1668 21.9775Z" fill="#B3B3B3"/>
<path d="M11.1668 16.1217C11.1668 16.9302 10.4206 17.5856 9.50016 17.5856C8.57969 17.5856 7.8335 16.9302 7.8335 16.1217C7.8335 15.3132 8.57969 14.6577 9.50016 14.6577C10.4206 14.6577 11.1668 15.3132 11.1668 16.1217Z" fill="#B3B3B3"/>
</svg>
