<svg width="47" height="54" viewBox="0 0 47 54" fill="none" xmlns="http://www.w3.org/2000/svg">
<path d="M24.1668 18.4021C23.8958 18.3567 23.6174 18.333 23.3335 18.333C20.5721 18.333 18.3335 20.5716 18.3335 23.333C18.3335 26.0944 20.5721 28.333 23.3335 28.333C26.0949 28.333 28.3335 26.0944 28.3335 23.333C28.3335 23.0491 28.3098 22.7707 28.2644 22.4997" stroke="#B3B3B3" stroke-width="1.5" stroke-linecap="round"/>
<path d="M11.6667 32.0268C10.5876 29.2703 10 26.3356 10 23.5722C10 16.0765 15.9695 10 23.3333 10C30.6971 10 36.6667 16.0765 36.6667 23.5722C36.6667 31.0091 32.4111 39.6874 25.7716 42.7907C24.2238 43.5142 22.4429 43.5142 20.8951 42.7907C18.7746 41.7996 16.8972 40.2398 15.324 38.3333" stroke="#B3B3B3" stroke-width="1.5" stroke-linecap="round"/>
</svg>
