<svg width="36" height="28" viewBox="0 0 36 28" fill="none" xmlns="http://www.w3.org/2000/svg">
<path d="M19.3333 1.49994C24.0474 1.49994 26.4044 1.49994 27.8689 2.9644C29.3333 4.42887 29.3333 6.78589 29.3333 11.4999C29.3333 16.214 29.3333 18.571 27.8689 20.0355C26.4044 21.4999 24.0474 21.4999 19.3333 21.4999H11C6.28595 21.4999 3.92893 21.4999 2.46447 20.0355C1 18.571 1 16.214 1 11.4999C1 6.78589 1 4.42887 2.46447 2.9644C3.92893 1.49994 6.28595 1.49994 11 1.49994H12.6667" stroke="#B3B3B3" stroke-width="1.5" stroke-linecap="round"/>
<path d="M24.3339 26.5H16.0005C11.2865 26.5 8.92946 26.5 7.46499 25.0356C6.6485 24.2191 6.28723 23.1251 6.12738 21.4999M32.8694 25.0356C34.3339 23.5711 34.3339 21.2141 34.3339 16.5C34.3339 11.786 34.3339 9.42896 32.8694 7.96449C32.0529 7.14802 30.959 6.78674 29.3339 6.62689" stroke="#B3B3B3" stroke-width="1.5" stroke-linecap="round"/>
<path d="M19.3333 11.4999C19.3333 13.8011 17.4679 15.6666 15.1667 15.6666C12.8655 15.6666 11 13.8011 11 11.4999C11 9.19873 12.8655 7.33325 15.1667 7.33325C17.4679 7.33325 19.3333 9.19873 19.3333 11.4999Z" stroke="#B3B3B3" stroke-width="1.5"/>
<path d="M24.3333 14.8333L24.3333 8.16659" stroke="#B3B3B3" stroke-width="1.5" stroke-linecap="round"/>
<path d="M6 14.8333L6 8.16659" stroke="#B3B3B3" stroke-width="1.5" stroke-linecap="round"/>
</svg>
