<svg width="13" height="13" viewBox="0 0 13 13" fill="none" xmlns="http://www.w3.org/2000/svg">
<g clip-path="url(#clip0_0_1033)">
<path d="M6.48452 12.9955C6.39245 12.9959 6.3012 12.9782 6.21599 12.9434C6.13077 12.9085 6.05326 12.8572 5.98788 12.7924L2.6485 9.453C2.12125 8.92865 1.70389 8.30439 1.42085 7.61677C1.13782 6.92914 0.99479 6.19197 1.00014 5.44839C0.997874 4.72846 1.13926 4.01531 1.41602 3.3507C1.69278 2.68609 2.09936 2.08337 2.61194 1.57784C3.64719 0.566317 5.03713 0 6.48452 0C7.93191 0 9.32185 0.566317 10.3571 1.57784C10.8697 2.08337 11.2763 2.68609 11.553 3.3507C11.8298 4.01531 11.9712 4.72846 11.9689 5.44839C11.9742 6.19197 11.8312 6.92914 11.5482 7.61677C11.2651 8.30439 10.8478 8.92865 10.3205 9.453L6.98116 12.7863C6.91628 12.8522 6.83899 12.9046 6.75376 12.9405C6.66852 12.9764 6.57701 12.9951 6.48452 12.9955ZM6.48452 0.604875C5.19578 0.601907 3.95787 1.10736 3.03952 2.01152C2.58456 2.4607 2.22375 2.9961 1.97821 3.58641C1.73267 4.17672 1.60733 4.81007 1.60952 5.44941C1.60464 6.1126 1.73211 6.77011 1.98445 7.38344C2.2368 7.99678 2.60895 8.55361 3.07913 9.02136L6.41749 12.3546C6.42611 12.3636 6.43644 12.3707 6.44787 12.3755C6.4593 12.3804 6.47159 12.3829 6.48401 12.3829C6.49643 12.3829 6.50872 12.3804 6.52015 12.3755C6.53158 12.3707 6.54191 12.3636 6.55054 12.3546L9.88991 9.02136C10.3601 8.55361 10.7322 7.99678 10.9846 7.38344C11.2369 6.77011 11.3644 6.1126 11.3595 5.44941C11.3617 4.81007 11.2364 4.17672 10.9908 3.58641C10.7453 2.9961 10.3845 2.4607 9.92952 2.01152C9.01117 1.10736 7.77326 0.601907 6.48452 0.604875Z" fill="#0C9AE3"/>
<path d="M6.48462 8.26542C5.84602 8.26512 5.22727 8.04301 4.73374 7.63692C4.24022 7.23083 3.90243 6.66587 3.77791 6.03825C3.6534 5.41063 3.74985 4.75916 4.05084 4.1948C4.35183 3.63043 4.83875 3.18807 5.42868 2.94304C6.01861 2.69801 6.67506 2.66547 7.28624 2.85096C7.89742 3.03645 8.42554 3.4285 8.78065 3.96035C9.13576 4.49219 9.2959 5.13093 9.23381 5.7678C9.17172 6.40467 8.89123 7.00028 8.44011 7.4532C8.18357 7.71092 7.87877 7.91533 7.54319 8.05471C7.20762 8.1941 6.84788 8.2657 6.48462 8.26542ZM6.48462 3.34236C5.98637 3.34315 5.5038 3.517 5.1191 3.83429C4.73441 4.15158 4.47138 4.59269 4.37481 5.0825C4.27824 5.5723 4.35412 6.0805 4.5895 6.52054C4.82489 6.96058 5.20523 7.30525 5.66575 7.49584C6.12627 7.68643 6.63849 7.71115 7.11516 7.5658C7.59183 7.42045 8.00347 7.11401 8.27998 6.69868C8.55649 6.28335 8.68075 5.78481 8.63162 5.28797C8.58249 4.79114 8.36299 4.32673 8.01051 3.97386C7.81013 3.77318 7.57221 3.6141 7.31037 3.50574C7.04852 3.39737 6.76791 3.34185 6.48462 3.34236Z" fill="#0C9AE3"/>
</g>
<defs>
<clipPath id="clip0_0_1033">
<rect width="12.969" height="12.9955" fill="white"/>
</clipPath>
</defs>
</svg>
