<svg width="22" height="22" viewBox="0 0 22 22" fill="none" xmlns="http://www.w3.org/2000/svg">
<g filter="url(#filter0_i_0_1042)">
<path d="M11.0011 22C4.92812 21.9933 0.00666927 17.0724 0 11V10.78C0.120937 4.735 5.09855 -0.0792282 11.1449 0.000988038C17.1911 0.0812043 22.0393 5.02579 21.9998 11.0719C21.9603 17.118 17.0479 21.9988 11.0011 22Z" fill="url(#paint0_linear_0_1042)"/>
</g>
<path d="M7.80931 6.50892C7.60871 6.54582 7.59478 6.55149 7.45269 6.71042C6.99576 7.22125 6.60292 8.03859 6.49984 8.69984C6.46083 8.9439 6.46083 9.45758 6.49984 9.67894C6.57506 10.1018 6.78402 10.6552 7.08771 11.2228C8.22165 13.3399 10.1341 14.7213 11.9896 15.1271C12.5747 15.2548 13.4393 15.2067 13.9213 15.1273C14.7404 14.9911 15.1479 14.8015 15.5129 14.0948C15.6271 13.8763 15.7832 13.4052 15.8333 13.1328C15.8862 12.8319 15.8584 12.7922 15.4126 12.5254C15.2064 12.4006 14.8275 12.1622 14.5656 11.9919C13.8886 11.5463 13.8022 11.5038 13.5626 11.5038C13.2952 11.5038 13.2283 11.552 12.9441 11.9408C12.6544 12.3353 12.2253 12.795 12.1473 12.795C12.0693 12.795 11.6764 12.5737 11.3198 12.3324C10.236 11.5946 9.33053 10.6495 9.17172 10.0933C9.14943 10.011 9.15779 9.99112 9.31102 9.818C9.55899 9.53136 9.69829 9.31284 9.75959 9.11134C9.83203 8.87579 9.82924 8.72822 9.75401 8.48983C9.68436 8.26847 9.19958 7.27801 8.98226 6.91191C8.81788 6.63663 8.72037 6.54014 8.56713 6.49473C8.42783 6.45784 8.06563 6.46352 7.80931 6.50892ZM8.54206 7.32342C8.7733 7.72641 8.93211 8.03859 9.09092 8.39617C9.21351 8.67146 9.38811 8.48041 9.37696 8.58542C9.36024 8.73583 8.19936 6.40392 7.92075 6.71042C7.80931 6.83245 6.90099 8.68281 6.89263 8.72254C6.84248 8.92688 7.23816 11.1405 7.45269 11.5038C7.9319 12.3097 9.99641 14.1204 11.0412 14.6398C11.4257 14.8299 14.5092 14.8923 14.7628 14.7646C14.9968 14.6482 15.2631 13.3532 15.5584 12.9445C15.6699 12.7885 13.5626 12.0941 13.5682 12.0884C13.5849 12.0657 13.7298 12.148 14.1589 12.4318C14.3985 12.5907 14.7384 12.8092 14.9139 12.9171C15.0894 13.0249 15.2371 13.1157 15.2399 13.1186C15.2427 13.1214 15.2148 13.2292 15.1786 13.3598C14.847 14.5546 13.9415 15.003 12.3256 14.7646C11.4535 14.6369 10.5676 14.2254 9.73173 13.5641C9.40854 13.3087 8.79281 12.6787 8.49469 12.2984C7.86503 11.4924 7.27995 10.4282 7.10999 9.76975C7.04034 9.50298 7.02641 8.98364 7.08213 8.72254C7.14343 8.43591 7.25209 8.13792 7.39418 7.85696C7.56413 7.52776 7.82602 7.14747 7.92075 7.09922C7.95976 7.07936 8.07956 7.06233 8.19101 7.06233H8.39161L8.54206 7.32342Z" fill="white"/>
<defs>
<filter id="filter0_i_0_1042" x="0" y="0" width="22" height="22" filterUnits="userSpaceOnUse" color-interpolation-filters="sRGB">
<feFlood flood-opacity="0" result="BackgroundImageFix"/>
<feBlend mode="normal" in="SourceGraphic" in2="BackgroundImageFix" result="shape"/>
<feColorMatrix in="SourceAlpha" type="matrix" values="0 0 0 0 0 0 0 0 0 0 0 0 0 0 0 0 0 0 127 0" result="hardAlpha"/>
<feOffset/>
<feGaussianBlur stdDeviation="2.5"/>
<feComposite in2="hardAlpha" operator="arithmetic" k2="-1" k3="1"/>
<feColorMatrix type="matrix" values="0 0 0 0 1 0 0 0 0 1 0 0 0 0 1 0 0 0 0.25 0"/>
<feBlend mode="normal" in2="shape" result="effect1_innerShadow_0_1042"/>
</filter>
<linearGradient id="paint0_linear_0_1042" x1="11.5838" y1="-8.32157e-08" x2="13.5621" y2="21.8206" gradientUnits="userSpaceOnUse">
<stop stop-color="#7BC0FF"/>
<stop offset="1" stop-color="#0C9AE3"/>
</linearGradient>
</defs>
</svg>
